inDegrees=yes
name=ik_S55_A11_T01
DataType=double
version=3
OpenSimVersion=4.3-2021-08-27-4bc7ad9
endheader
time	pelvis_tilt	pelvis_list	pelvis_rotation	pelvis_tx	pelvis_ty	pelvis_tz	hip_flexion_r	hip_adduction_r	hip_rotation_r	knee_angle_r	knee_angle_r_beta	ankle_angle_r	subtalar_angle_r	mtp_angle_r	hip_flexion_l	hip_adduction_l	hip_rotation_l	knee_angle_l	knee_angle_l_beta	ankle_angle_l	subtalar_angle_l	mtp_angle_l	lumbar_extension	lumbar_bending	lumbar_rotation	arm_flex_r	arm_add_r	arm_rot_r	elbow_flex_r	pro_sup_r	wrist_flex_r	wrist_dev_r	arm_flex_l	arm_add_l	arm_rot_l	elbow_flex_l	pro_sup_l	wrist_flex_l	wrist_dev_l
5.51999999999997	0.9579737154025006	0.7345902803533898	29.60671303908599	0	0.9399999999999999	0	24.00942965370224	-8.227604777063297	-7.291575322074497	26.05437412052873	0.4547346129496284	0	0	0	24.00942965370224	-8.227604777063297	-7.291575322074497	26.05437412052873	0.4547346129496284	0	0	0	1.033107501563684	0.7999555334664022	12.83359205937902	9.803381768469871	-12.23087192914772	-11.88170929381337	10.65399006130861	108.7713727094853	0	0	0.183802728157646	-4.520957950946	-6.458362637227734	9.961198565060787	135.6872182691276	0	0
5.53999999999997	0.9780223248722649	0.7058899690852256	29.55135203571874	0	0.9399999999999999	0	24.01594551835743	-8.229374403541776	-7.29331408006016	26.06130115210629	0.4548555124580462	0	0	0	24.01594551835743	-8.229374403541776	-7.29331408006016	26.06130115210629	0.4548555124580462	0	0	0	1.035963354538206	0.7654353457313697	12.86147925163667	10.62853176226307	-12.57825638107157	-12.01717876395504	11.26268825048724	108.6423467675877	0	0	0.2401539442666365	-4.592254393677798	-6.507200050933772	9.954996386697962	135.6961132869253	0	0
5.559999999999969	0.978635862303361	0.6935659810391792	29.48320415846366	0	0.9399999999999999	0	24.02362049516401	-8.231460662926578	-7.295363500346734	26.06944993621256	0.4549977355707348	0	0	0	24.02362049516401	-8.231460662926578	-7.295363500346734	26.06944993621256	0.4549977355707348	0	0	0	1.029452280172481	0.7555609511662374	12.93729323281007	11.44862290457562	-13.12126223083763	-12.43708234392152	12.16592420739614	108.76587746955	0	0	0.322840464784577	-4.601661906608518	-6.553954911886914	9.93446004591131	135.7319968655009	0	0
5.579999999999969	1.024874699125092	0.6859780968135563	29.51437522221123	0	0.9399999999999999	0	24.03565058999405	-8.234721098063245	-7.298570718129906	26.08224084124503	0.4552209789778613	0	0	0	24.03565058999405	-8.234721098063245	-7.298570718129906	26.08224084124503	0.4552209789778613	0	0	0	1.066166373107898	0.7262750359175986	12.9301166363728	11.36457416101539	-13.1751181403369	-12.50493073731707	14.07040897146432	108.4146243915776	0	0	0.3477632565024811	-4.65099956312438	-6.597715141582561	9.861566477924098	135.8117191993641	0	0
5.599999999999969	1.058292297384417	0.673330986010677	29.48012200888411	0	0.9399999999999999	0	24.04589779845839	-8.237505590584034	-7.301307366568695	26.09310574244511	0.4554106072767067	0	0	0	24.04589779845839	-8.237505590584034	-7.301307366568695	26.09310574244511	0.4554106072767067	0	0	0	1.087986653925254	0.7001613332664632	13.02171944780344	12.18963312870529	-13.72398906756108	-13.05549676254541	15.20449324311368	108.7264984900604	0	0	0.3778598287439435	-4.691713618357558	-6.653920829535841	9.841929140354265	135.8911661683646	0	0
5.619999999999968	1.071276975147041	0.6417642663116043	29.44996753906045	0	0.9399999999999999	0	24.05628527712764	-8.240321242719396	-7.304077743451638	26.10413285285314	0.4556030666603078	0	0	0	24.05628527712764	-8.240321242719396	-7.304077743451638	26.10413285285314	0.4556030666603078	0	0	0	1.082979608029709	0.667474143385673	13.09675058603646	13.12754404026157	-14.19826063821832	-13.42100123090017	14.30696540079481	109.1586974981951	0	0	0.4379161535861285	-4.807170216158381	-6.758924129945814	9.848097262646837	135.9878231232146	0	0
5.639999999999968	1.050255679664539	0.5847273088854702	29.36554112349701	0	0.9399999999999999	0	24.06313313013213	-8.242171815169671	-7.305900979619547	26.1114150604901	0.4557301651603866	0	0	0	24.06313313013213	-8.242171815169671	-7.305900979619547	26.1114150604901	0.4557301651603866	0	0	0	1.035688991171053	0.6289558869070118	13.17880506333677	14.25571383745757	-14.82646294712458	-13.83432176806064	15.3698891471001	109.6497434761589	0	0	0.5584082957785548	-4.864432771710605	-6.754225273944608	9.906093734868548	135.9581008676011	0	0
5.659999999999967	1.062505570927794	0.590439974720436	29.3409169772942	0	0.9399999999999999	0	24.08951911729338	-8.249304677391383	-7.312932285837768	26.13938401366304	0.4562183154815905	0	0	0	24.08951911729338	-8.249304677391383	-7.312932285837768	26.13938401366304	0.4562183154815905	0	0	0	1.048548632419719	0.6285020202109144	13.21735911096424	15.30138236187376	-15.69528238578727	-14.40038778148732	19.01536290560149	111.0031606424096	0	0	0.5496442781583664	-4.945912154815202	-6.956551696445539	9.901437020837182	136.1544940251604	0	0
5.679999999999967	1.084474947672019	0.6176061691545003	29.29178094860062	0	0.9399999999999999	0	24.09975491104911	-8.252069492612176	-7.315658348687718	26.15024335064792	0.4564078466665601	0	0	0	24.09975491104911	-8.252069492612176	-7.315658348687718	26.15024335064792	0.4564078466665601	0	0	0	1.080394345770924	0.642086263986528	13.25622041501942	16.46937228570138	-16.45447925053391	-14.78647141161585	20.2941373451912	111.7210181436893	0	0	0.4892614686381929	-4.993324908313248	-7.223793832977483	9.958509860177683	136.4246736259356	0	0
5.699999999999966	1.096452409863213	0.6171204579744034	29.23980220800618	0	0.9399999999999999	0	24.10733510631253	-8.254110380490664	-7.317673452395174	26.15830088168334	0.45654847711271	0	0	0	24.10733510631253	-8.254110380490664	-7.317673452395174	26.15830088168334	0.45654847711271	0	0	0	1.090377140850328	0.6356988091188963	13.26526576117214	17.9076068076276	-17.17476122206959	-14.95966641720261	21.4422442544657	112.3957397922829	0	0	0.4776489973124293	-5.059663181723611	-7.466659130528422	10.02804491704181	136.6686505115624	0	0
5.719999999999966	1.118492324785319	0.6252936618797773	29.23019447434367	0	0.9399999999999999	0	24.11581657966821	-8.256393529125473	-7.319928212222951	26.16731198210933	0.4567057504843713	0	0	0	24.11581657966821	-8.256393529125473	-7.319928212222951	26.16731198210933	0.4567057504843713	0	0	0	1.113996518325296	0.6323011449294591	13.22416047732353	19.52034944629098	-17.80900437032212	-14.88732214111155	22.46616645764582	113.1253329384016	0	0	0.393183445240134	-5.214617688665649	-7.70091391446948	10.0789214678361	136.8827262322141	0	0
5.739999999999966	1.130513375796375	0.6265984208459812	29.28808717310351	0	0.9399999999999999	0	24.1367787090096	-8.2620236587468	-7.325497280031058	26.18955141140111	0.4570939017492773	0	0	0	24.1367787090096	-8.2620236587468	-7.325497280031058	26.18955141140111	0.4570939017492773	0	0	0	1.128141099376536	0.627471550348157	13.04572759183669	23.33252641808349	-18.73346043835878	-13.61577612070862	21.52940015035373	113.4459464117455	0	0	0.3746938254004404	-5.257167129481283	-7.860977498604953	10.18171469149459	137.2101215733423	0	0
